<svg id="Capa_1" enable-background="new 0 0 512 512" height="512" viewBox="0 0 512 512" width="512" xmlns="http://www.w3.org/2000/svg"><g><g><path d="m130.74 504.5c-9.484 0-17.173-7.689-17.173-17.173v-17.173h34.346v17.173c-.001 9.484-7.689 17.173-17.173 17.173z" fill="#5e54ac"/></g><g><path d="m381.26 504.5c9.484 0 17.173-7.689 17.173-17.173v-17.173h-34.346v17.173c0 9.484 7.689 17.173 17.173 17.173z" fill="#5e54ac"/></g><g><path d="m94.374 328.732v-260.622c0-33.474 27.136-60.61 60.61-60.61h202.033c33.474 0 60.61 27.136 60.61 60.61v260.622z" fill="#e49824"/></g><g><path d="m357.016 7.5h-28.285c33.474 0 60.61 27.136 60.61 60.61v109.406c0 5.615-2.336 10.978-6.456 14.794-17.139 15.87-27.889 38.542-27.889 63.691v72.732h62.63v-260.623c0-33.474-27.136-60.61-60.61-60.61z" fill="#df8621"/></g><g><path d="m157.004 256v72.732h-62.63v-156.138c36.137 10.522 62.63 43.918 62.63 83.406z" fill="#df8621"/></g><g><path d="m130.74 328.732h250.52v141.423h-250.52z" fill="#eab14d"/></g><g><path d="m357.016 328.732h24.244v141.423h-24.244z" fill="#e7a52e"/></g><g><path d="m130.74 375.873h250.52v47.141h-250.52z" fill="#e49824"/></g><g><path d="m357.016 375.872h24.244v47.141h-24.244z" fill="#df8621"/></g><g><path d="m130.74 328.732v-30.305c0-16.737 13.568-30.305 30.305-30.305h189.911c16.737 0 30.305 13.568 30.305 30.305v30.305z" fill="#f1cb86"/></g><g><path d="m70.13 195.39c-33.474 0-60.61 27.136-60.61 60.61 0 28.602 19.818 52.561 46.467 58.933v114.814c0 22.316 18.091 40.407 40.407 40.407h34.346v-214.154c0-33.474-27.136-60.61-60.61-60.61z" fill="#eab14d"/></g><g><path d="m70.13 195.39c-3.444 0-6.815.302-10.102.854 28.663 4.811 50.508 29.725 50.508 59.756v214.154h20.203v-214.154c.001-33.474-27.135-60.61-60.609-60.61z" fill="#e7a52e"/></g><g><circle cx="70.13" cy="256" fill="#f1cb86" r="16.163"/></g><g><path d="m502.479 256c0-33.474-27.136-60.61-60.61-60.61s-60.61 27.136-60.61 60.61v214.154h34.346c22.316 0 40.407-18.091 40.407-40.407v-114.814c26.649-6.372 46.467-30.331 46.467-58.933z" fill="#eab14d"/></g><g><path d="m459.07 197.881c14.123 11.097 23.206 28.319 23.206 47.673 0 24.311-14.318 45.267-34.978 54.921-7.086 3.311-11.49 10.565-11.49 18.386v110.886c0 22.316-18.091 40.407-40.406 40.407h20.203c22.316 0 40.407-18.091 40.407-40.407v-114.814c26.649-6.372 46.467-30.331 46.467-58.933 0-27.497-18.316-50.703-43.409-58.119z" fill="#e7a52e"/></g><g><circle cx="441.87" cy="256" fill="#f1cb86" r="16.163"/></g><g><circle cx="256" cy="70.13" r="9.092"/><ellipse cx="300.447" cy="70.13" rx="9.091" ry="9.092" transform="matrix(.998 -.071 .071 .998 -4.216 21.475)"/><ellipse cx="211.553" cy="70.13" rx="9.092" ry="9.091" transform="matrix(.099 -.995 .995 .099 120.918 273.743)"/><circle cx="256" cy="150.943" r="9.092"/><ellipse cx="300.447" cy="150.943" rx="9.091" ry="9.092" transform="matrix(.998 -.071 .071 .998 -9.944 21.678)"/><ellipse cx="211.553" cy="150.943" rx="9.092" ry="9.091" transform="matrix(.099 -.995 .995 .099 40.498 346.593)"/><path d="m269.132 114.577c0 5.013 4.078 9.092 9.091 9.092s9.091-4.078 9.091-9.092c0-5.013-4.078-9.091-9.091-9.091s-9.091 4.078-9.091 9.091z"/><path d="m313.579 114.577c0 5.013 4.078 9.092 9.091 9.092s9.092-4.078 9.092-9.092c0-5.013-4.078-9.091-9.092-9.091-5.013 0-9.091 4.078-9.091 9.091z"/><path d="m224.685 114.577c0 5.013 4.079 9.092 9.091 9.092s9.091-4.078 9.091-9.092c0-5.013-4.079-9.091-9.091-9.091s-9.091 4.078-9.091 9.091z"/><path d="m180.238 114.577c0 5.013 4.079 9.092 9.091 9.092 5.013 0 9.091-4.078 9.091-9.092 0-5.013-4.079-9.091-9.091-9.091-5.013 0-9.091 4.078-9.091 9.091z"/><path d="m46.467 256c0 13.048 10.615 23.663 23.663 23.663s23.662-10.615 23.662-23.663-10.615-23.663-23.663-23.663-23.662 10.615-23.662 23.663zm32.325 0c0 4.776-3.886 8.663-8.663 8.663s-8.663-3.887-8.663-8.663 3.886-8.663 8.663-8.663 8.663 3.887 8.663 8.663z"/><path d="m441.87 279.663c13.047 0 23.662-10.615 23.662-23.663s-10.615-23.663-23.662-23.663c-13.048 0-23.663 10.615-23.663 23.663s10.615 23.663 23.663 23.663zm0-32.326c4.776 0 8.662 3.887 8.662 8.663s-3.886 8.663-8.662 8.663-8.663-3.887-8.663-8.663 3.887-8.663 8.663-8.663z"/><path d="m441.87 187.89c-5.775 0-11.382.728-16.74 2.087v-63.987c0-4.143-3.357-7.5-7.5-7.5s-7.5 3.357-7.5 7.5v69.773c-21.608 11.432-36.37 34.137-36.37 60.237v12.299c-6.344-4.814-14.245-7.677-22.805-7.677h-189.91c-8.56 0-16.461 2.864-22.805 7.677v-12.299c0-26.099-14.763-48.804-36.37-60.236v-127.654c0-29.285 23.825-53.11 53.11-53.11h202.04c29.285 0 53.11 23.825 53.11 53.11v22.68c0 4.143 3.357 7.5 7.5 7.5s7.5-3.357 7.5-7.5v-22.68c0-37.557-30.554-68.11-68.11-68.11h-202.04c-37.556 0-68.11 30.554-68.11 68.11v121.867c-5.358-1.359-10.965-2.087-16.74-2.087-37.556 0-68.11 30.554-68.11 68.11 0 29.627 18.83 55.389 46.47 64.583v33.457c0 4.143 3.358 7.5 7.5 7.5s7.5-3.357 7.5-7.5v-30.258c2.203.214 4.419.327 6.64.327 9.469 0 18.636-1.908 27.247-5.671 3.796-1.658 5.528-6.079 3.87-9.875s-6.08-5.531-9.875-3.869c-6.705 2.93-13.852 4.415-21.241 4.415-4.129 0-8.238-.48-12.216-1.415-.062-.017-.117-.045-.18-.06-23.973-5.729-40.715-26.962-40.715-51.634 0-29.285 23.825-53.11 53.11-53.11s53.11 23.825 53.11 53.11v206.65h-26.85c-18.141 0-32.9-14.759-32.9-32.9v-40.51c0-4.143-3.358-7.5-7.5-7.5s-7.5 3.357-7.5 7.5v40.51c0 26.412 21.488 47.9 47.9 47.9h9.677v9.677c0 13.604 11.068 24.673 24.673 24.673s24.673-11.068 24.673-24.673v-9.673h201.174v9.673c0 13.604 11.068 24.673 24.673 24.673s24.673-11.068 24.673-24.673v-9.677h9.678c26.412 0 47.899-21.488 47.899-47.9v-40.51c0-4.143-3.357-7.5-7.5-7.5s-7.5 3.357-7.5 7.5v40.51c0 18.142-14.759 32.9-32.899 32.9h-26.851v-206.65c0-29.285 23.825-53.11 53.11-53.11s53.11 23.825 53.11 53.11c0 24.672-16.742 45.905-40.714 51.635-.063.015-.119.043-.181.06-3.979.935-8.088 1.415-12.216 1.415-7.39 0-14.536-1.485-21.241-4.415-3.794-1.661-8.216.072-9.875 3.869-1.659 3.795.073 8.217 3.869 9.875 8.61 3.763 17.777 5.671 27.247 5.671 2.22 0 4.437-.114 6.64-.327v30.258c0 4.143 3.357 7.5 7.5 7.5s7.5-3.357 7.5-7.5v-33.457c27.641-9.194 46.471-34.956 46.471-64.583 0-37.558-30.553-68.111-68.11-68.111zm-303.63 274.764v-32.141h235.52v32.141zm0-94.281v-32.142h235.52v32.142zm235.52 15v32.141h-235.52v-32.141zm-212.715-107.751h189.91c12.574 0 22.805 10.23 22.805 22.805v22.805h-235.52v-22.824c.01-12.566 10.236-22.786 22.805-22.786zm-20.633 211.705c0 5.334-4.339 9.673-9.673 9.673s-9.673-4.339-9.673-9.673v-9.677l19.346.004zm250.52-9.677v9.677c0 5.334-4.339 9.673-9.673 9.673s-9.673-4.339-9.673-9.673v-9.673z"/></g></g></svg>