<svg xmlns="http://www.w3.org/2000/svg" width="19.44cm" height="18.23cm" viewBox="0 0 551.13 516.88"><defs><style>.a{fill:#0db591;}</style></defs><title>trustroots-tree</title><path class="a" d="M170.13,403.91c14.68,0,22.35,13.33,21,29.89-1.76,22.35-8.49,30.3-20.07,30.3-15.61-.41-17.9-13.33-17.9-30.3-.54-16.42,5.25-29.89,17-29.89Z" transform="translate(-74.43 0)"/><path class="a" d="M220.49,428c14.67,0,22.35,10.24,21.4,26.8-1.75,22.35-8.48,33.92-20.06,33.52-9.42,0-17.9-15.21-17.9-30.29-.41-13.06.94-30,16.56-30Z" transform="translate(-74.43 0)"/><path class="a" d="M300.86,62.47c15.62,0,23.16-14.27,21-31.23C318.77,8.48,311.1,0,299.11,0c-16.56.4-18.31,13.87-17.9,31.24s7.54,31.23,19.65,31.23Z" transform="translate(-74.43 0)"/><path class="a" d="M208,101.25c-16,0-24.1-14.27-22.75-31.64C187,46.45,194.64,38,206.62,38.37c17,.41,19.25,13.87,19.66,31.24s-5.79,31.64-18.32,31.64Z" transform="translate(-74.43 0)"/><path class="a" d="M97.83,302.67c-16,0-25-11.18-23.16-29.49,2.29-24.1,10.24-36.62,22.76-36.62,10.23,0,19.25,16.56,19.65,32.58-.13,14.68-1.88,33.53-19.25,33.53Z" transform="translate(-74.43 0)"/><path class="a" d="M253.61,69.61c13.86,0,20.6-11.18,18.71-25-2.29-18.31-9.42-25-20.06-25-14.67.41-16,11.58-16,25,.4,13.87,6.6,25,17.37,25Z" transform="translate(-74.43 0)"/><path class="a" d="M277.71,514.58c13.86,0,20.6-10.23,18.71-27.19-2.69-22.35-9.83-33.93-20.6-33.53-8.88,0-16,15.22-15.62,30.3.54,13.06,2.29,30.42,17.51,30.42Z" transform="translate(-74.43 0)"/><path class="a" d="M127.72,383.45c-10.77-.41-17,6.19-16,17,1.35,14.68,6.19,22.76,14.67,23.16,7.14,0,13.33-9.43,13.33-19.66,1-8.48,0-20.06-12-20.46Z" transform="translate(-74.43 0)"/><path class="a" d="M544.56,99.9c14.27,0,21.81,12.93,21.41,28.14-1,21-7.14,28.54-18.31,28.54-15.22-.4-17.37-12.92-18.32-28.54C528,113,533.38,99.9,544.56,99.9Z" transform="translate(-74.43 0)"/><path class="a" d="M347.72,2.69c13.87,0,21.41,9.43,20.6,24.51C367,47.8,360.24,58.43,349.6,58c-8.88,0-17.36-13.87-17.9-27.74,0-12,.8-27.6,16-27.6Z" transform="translate(-74.43 0)"/><path class="a" d="M318.77,195.49c16,0,23.16-14.67,21-32.17-3.1-23.7-10.78-32.18-23.16-32.18-16.56.4-18.31,14.27-17.91,32.18.81,17.9,7.54,32.17,20.06,32.17Z" transform="translate(-74.43 0)"/><path class="a" d="M265.19,137.87c14.27,0,21.81,9.42,20.6,24.5-1.35,20.6-8.49,30.83-19.26,30.83-8.88,0-17.37-13.86-17.9-27.73,0-12,1.34-27.6,16.56-27.6Z" transform="translate(-74.43 0)"/><path class="a" d="M584.82,206.26c13.32,0,19.65-9.82,17.36-25.44-3.09-21-10.23-31.64-20.6-31.64-8.48,0-15.21,14.27-14.27,28.54.54,12,3.1,28.54,17.51,28.54Z" transform="translate(-74.43 0)"/><path class="a" d="M503.49,116.06c-15.21-.41-22.75-15.22-21.4-32.58,1.75-23.16,8.88-31.24,20.6-30.84,15.61,1,17.9,14.68,18.31,32.18.4,17.77-5.93,31.64-17.51,31.24Z" transform="translate(-74.43 0)"/><path class="a" d="M560.58,245.44c-12.12-.4-17.91,6.74-16.56,18.31,1.75,16,8.08,24.1,17.37,24.51,7.54,0,13.87-10.23,13.87-21-.27-8.89-2.16-21.28-14.68-21.82Z" transform="translate(-74.43 0)"/><path class="a" d="M406.69,255.27c-12.12-.4-17.91,5.79-17,16,1.75,13.87,7.54,21.41,16.56,21.41,7.54,0,14.27-8.88,14.27-18.31.4-7.94-.94-18.58-13.87-19.12Z" transform="translate(-74.43 0)"/><path class="a" d="M100,372.68c13.32.4,20.6-11.58,19.65-26.39-1.34-20.06-7.54-27.74-17.9-28.14-14.28-.41-16.56,11.58-17,26.39-.4,15.21,5,27.73,15.22,28.14Z" transform="translate(-74.43 0)"/><path class="a" d="M543.75,296.34c16,0,25.45,11.17,24.5,29.48-.94,24.51-8.48,37.43-21,37-10.23,0-20.6-16.56-21.41-33.53-.94-14.27,0-33,17.91-33Z" transform="translate(-74.43 0)"/><path class="a" d="M602.59,277.22c15.62,0,22.35-13.33,20.06-29-3.64-21.41-11.58-29-23.16-29-16.56.41-17.91,12.93-16.56,29,.54,16,7.67,29,19.66,29Z" transform="translate(-74.43 0)"/><path class="a" d="M441,516.87c16.56-.94,23.7-16.56,20.6-35.27-4.44-25-12.92-33.93-25.85-33-17.37.94-18.31,16-17,34.87s9.29,33.8,22.21,33.39Z" transform="translate(-74.43 0)"/><path class="a" d="M546.85,445c16.56-1,24.1-12.52,20.6-31.24-4.45-24.5-13.87-37-26.39-36.62-10.23.4-17.91,17.37-16.56,34.33.94,15.22,4.44,34.47,22.35,33.53Z" transform="translate(-74.43 0)"/><path class="a" d="M585.62,362.85c11.58-.41,18.31,6.19,17.91,17-.4,14.68-5.39,22.76-14.27,22.76-7.54,0-14.68-9.43-15.62-19.66-.94-8.48-.54-19.52,12-20.06Z" transform="translate(-74.43 0)"/><path class="a" d="M610.67,345.88c-14.28.41-22.76-11.58-22.35-26.39,0-20.06,6.19-27.73,17.36-27.73,15.22-.4,18.31,11.58,19.66,26.39,1.35,15.21-3.5,27.33-14.67,27.73Z" transform="translate(-74.43 0)"/><path class="a" d="M502.15,480.66c-16.56.94-25.45-8.49-25-24.1.4-20.6,7.54-31.64,20.59-32.18,10.24-.41,20.6,13.33,21.82,27.19.53,12.66,0,28.68-17.37,29.09Z" transform="translate(-74.43 0)"/><path class="a" d="M499.46,282.07c12.11,0,18.71,9.82,18.31,26.38-.41,21.82-6.2,33-15.22,32.59-7.54,0-15.21-14.68-15.62-29.49-1.21-12.52-.4-29.48,12.53-29.48Z" transform="translate(-74.43 0)"/><path class="a" d="M447.22,33c15.61,0,24.1,12.92,23.15,28.54-1.34,21-8.48,29-20.6,28.54-16.56-.4-19.25-12.92-20.06-28.54-.27-16,5.52-28.54,17.51-28.54Z" transform="translate(-74.43 0)"/><path class="a" d="M177.27,124.14c-14.68-1.35-23.16,13.32-22.76,32.17.41,25.05,6.74,34.88,18.31,35.68,15.62.95,18.72-13.86,20.07-32.58.8-18.85-4.45-34.47-15.62-35.27Z" transform="translate(-74.43 0)"/><path class="a" d="M120.59,110.67c-14.68,0-22.35,11.18-21,29,2.29,24.1,9.83,36.62,21.41,36.62,9.42,0,17.91-16.56,17.37-33,0-13.86-1.75-32.58-17.77-32.58Z" transform="translate(-74.43 0)"/><path class="a" d="M542.4,183c14.28,0,21.82,12.12,21,27.2-.94,20.06-7.14,27.2-18.31,27.2-15.22-.41-17.37-12.12-18.31-27.2-.54-15.08,4.84-27.2,15.61-27.2Z" transform="translate(-74.43 0)"/><path class="a" d="M154.92,64.22c15.62,0,24.1,8.89,22.35,23.7-1.75,19.66-9.83,29.89-21.81,29.89-10.24,0-18.72-13.33-19.26-26.8.41-11.57,1.75-26.79,18.72-26.79Z" transform="translate(-74.43 0)"/><path class="a" d="M393.76,442.28c14.68,0,21.41-13.86,19.26-30.83-3.1-22.75-10.23-30.83-21.41-30.83-15.21.4-17,13.87-16,30.83.27,17.1,7,30.83,18.17,30.83Z" transform="translate(-74.43 0)"/><path class="a" d="M296.42,442.28c14.68,0,21.81-10.77,19.66-27.19-2.69-22.76-10.23-34.34-21.41-33.93-9.42,0-17,15.21-16.56,30.83.4,12.93,2.69,30.29,18.31,30.29Z" transform="translate(-74.43 0)"/><path class="a" d="M346.37,452.11c-12.92,0-19.65-12.52-18.71-27.73,1.34-20.06,7.13-27.74,17-27.74,13.87.41,15.62,12.52,16,27.74.95,15.21-4,27.73-14.27,27.73Z" transform="translate(-74.43 0)"/><path class="a" d="M449.5,429.36c-16,0-25-12.12-24.1-30.83,1.35-25.45,8.89-38.37,21.41-38.37,10.23,0,20.06,17.36,21,34.33,0,14.81-.95,34.87-18.32,34.87Z" transform="translate(-74.43 0)"/><path class="a" d="M193.69,405.66c15.22,0,22.35-15.62,20.6-34.33-2.69-25-9.83-34.33-21.4-33.93-15.62.41-17.37,15.22-17.37,33.93.4,18.71,6.59,34.33,18.17,34.33Z" transform="translate(-74.43 0)"/><path class="a" d="M138,246.39c14.68,0,22.35-10.24,20.6-26.8-2.29-22.35-9.83-33.52-21-33.52-9.43,0-17.37,15.21-17,29.89-.54,13.06,1.34,30.43,17.36,30.43Z" transform="translate(-74.43 0)"/><path class="a" d="M411.54,95.46c11.17,0,17.37,6.73,16.56,17.37-1,14.27-6.2,21.81-15.22,21.4-7.13,0-13.86-9.82-14.27-19.65,0-8.35.94-19.12,12.93-19.12Z" transform="translate(-74.43 0)"/><path class="a" d="M461.62,172.34c-14.27,0-21.81-14.28-21-31.24.94-22.75,7.54-31.24,18.31-30.83,14.67.4,17.37,13.87,18.31,30.83.4,17.37-4.58,31.24-15.62,31.24Z" transform="translate(-74.43 0)"/><path class="a" d="M266.94,127.64c-15.62,0-24.1-8.89-22.76-23.16,1.75-19.25,9.43-28.95,21.41-28.95,9.83,0,19.25,12.93,19.25,25.85.81,11.58-.94,26.26-17.9,26.26Z" transform="translate(-74.43 0)"/><path class="a" d="M245.12,420.88c14.68.94,22.76-10.77,21.41-29.89-1.75-25.45-8.88-38.78-20.6-38.78-9.42-.4-17.9,16-17.9,33.53-.41,15.08,1.48,34.73,17.09,35.14Z" transform="translate(-74.43 0)"/><path class="a" d="M400.36,77.15c-14.67-.41-22.75-12.12-21-29.49,2.29-23.69,9.42-35.27,21-34.87,9.43.4,17.91,17,17.91,32.58,0,14.41-1.75,32.72-17.91,31.78Z" transform="translate(-74.43 0)"/><path class="a" d="M410.73,300.78c-16,0-23.7,15.21-21.41,33,3.1,24.5,11.18,33.52,23.7,33.52,17-.4,18.71-15.21,17.9-33.52s-8.21-33-20.19-33Z" transform="translate(-74.43 0)"/><path class="a" d="M504.44,207.07c16,0,25,14.68,24.1,32.58-.95,24.1-8.49,33-21,32.59-17-.41-20.06-14.68-21-32.59-.4-17.77,5.79-32.58,17.91-32.58Z" transform="translate(-74.43 0)"/><path class="a" d="M458.39,290.14c-14.27,0-21,12.12-18.71,27.2,2.69,20.06,10.23,27.2,21,27.2,15.21-.41,16.56-12.12,15.62-27.2,0-15.21-6.73-27.2-17.91-27.2Z" transform="translate(-74.43 0)"/><path class="a" d="M362.53,371.33c-14.68,0-22.35-8.48-21.41-22.35,1.35-18.31,8.48-28.14,19.66-27.73,9.42,0,17.91,12.52,18.31,25,.27,10.77-.94,25-16.56,25Z" transform="translate(-74.43 0)"/><path class="a" d="M187.1,204.38c13.33.4,20.06,13.87,18.31,29.89-2.29,21.41-8.89,29-19.26,28.14-14.27-.94-15.61-13.87-15.61-29.89.4-16,6.19-28.54,16.56-28.14Z" transform="translate(-74.43 0)"/><path class="a" d="M230.85,338.75c-12.52,0-19.25-8.89-17.9-20.06,1.34-14.68,7.54-20.06,17-20.06,13.33,0,15.21,8.88,15.62,20.06s-5,20.06-14.68,20.06Z" transform="translate(-74.43 0)"/><path class="a" d="M313.79,303.07C329,304,337,315.59,335.2,334.3c-2.29,25.05-9.83,38-21.81,37-9.83-.4-18.31-17.91-17.91-35.27,0-14.28,1.75-33.39,18.31-33Z" transform="translate(-74.43 0)"/><path class="a" d="M143.74,259.72c-11.58-.41-17.37,6.19-16.56,17,1.35,14.68,6.73,22.75,15.62,23.16,7.54,0,13.87-9.43,14.27-19.66,0-8.35-1.21-19.93-13.33-20.46Z" transform="translate(-74.43 0)"/><path class="a" d="M90.16,228.08c14.27.4,21.4-11.58,20.6-26.39C109.41,181.63,102.68,174,92,174c-14.67-.4-17,11.58-17.37,26.39s4.85,27.33,15.49,27.74Z" transform="translate(-74.43 0)"/><path class="a" d="M145.09,368.23c14.67.95,22.75-8.48,21.41-24.1-1.75-20.6-8.89-31.64-20.06-32.17-9.43-.41-17.91,12.92-18.32,27.19,0,12.52,1.35,28.68,17,29.08Z" transform="translate(-74.43 0)"/><path class="a" d="M492.32,408c14.67,0,21.41-13.87,18.71-30.83-3.09-22.35-10.77-30.83-21.81-30.29-15.21.4-16.56,13.33-16,30.29,1.35,17,7.94,30.83,19.12,30.83Z" transform="translate(-74.43 0)"/><path class="a" d="M505.78,192.4c14.27,0,21-9.83,18.72-25.85-3.1-21.41-10.77-32.59-21.81-32.18-8.89,0-16,14.67-15.62,28.95.81,12.11,3.1,29.08,18.71,29.08Z" transform="translate(-74.43 0)"/><path class="a" d="M217.39,108.38c13.33,0,20.6,9.83,19.25,25.85-1.34,21.41-8.08,32.59-18.31,32.18-8.48,0-16-14.67-16.56-28.95,0-12.52.94-29.08,15.62-29.08Z" transform="translate(-74.43 0)"/><path class="a" d="M366.43,74.05c-14.67.54-21.4,15.62-18.71,33.53,4,24.1,11.58,32.58,23.16,31.64,15.61-.95,17-15.62,15.61-33.53s-8.34-32-20.06-31.64Z" transform="translate(-74.43 0)"/><path class="a" d="M190.19,323.53c-10.77.41-17-7.54-16-21.4C175.11,283.82,180,274,188,273.58c6.73-.4,13.33,11.58,13.87,24.1.8,10.77-.14,25.45-11.72,25.85Z" transform="translate(-74.43 0)"/><path class="a" d="M313.39,70c15.21,0,23.15,11.58,21.81,25.45-1.75,18.71-8.89,25.85-20.6,25.44-16-.4-18.31-11.57-18.72-25.44S301.81,70,313.39,70Z" transform="translate(-74.43 0)"/><path class="a" d="M271,356.65c-12.12.41-18.72-10.77-18.32-24.5.41-18.71,6.2-25.45,15.62-25.85,12.93-.4,15.22,10.77,16,24.5.54,13.74-3.9,25.32-13.32,25.85Z" transform="translate(-74.43 0)"/><path class="a" d="M411.54,206.67c14.27,0,21-13.33,18.71-29.49-3.1-21.4-10.23-29.48-21-28.94-15.22.4-16.56,12.92-15.62,28.94.54,16.56,6.73,29.49,17.91,29.49Z" transform="translate(-74.43 0)"/><path class="a" d="M275.42,249.89c14.27,0,21.41-8.48,19.66-21.81-2.7-17.91-9.83-27.2-21-27.2-8.88,0-16.56,12.12-16.56,24.5.54,10.77,2.69,24.51,17.91,24.51Z" transform="translate(-74.43 0)"/><path class="a" d="M320.93,249.89c-12.53,0-19.26-10.24-18.31-22.76,1.34-16.56,7.13-22.75,17-22.35,13.33,0,15.21,10.24,15.62,22.35.94,12.93-4.45,22.76-14.27,22.76Z" transform="translate(-74.43 0)"/><path class="a" d="M228.16,288.39c14.68.41,22.35-8.07,21.41-21.81-1.75-18.71-8.89-28.54-20.06-28.54-9.43,0-17.91,12.12-17.91,24.5-.4,11,.94,25.31,16.56,25.85Z" transform="translate(-74.43 0)"/><path class="a" d="M459.33,230.77c-12.52,0-19.25-11.18-18.31-24.51.94-18.31,6.73-24.5,16.56-24.5,12.93.4,15.22,11.18,16,24.5,0,13.33-4.44,24.51-14.27,24.51Z" transform="translate(-74.43 0)"/><path class="a" d="M232.6,224c-10.77.4-16.56-7.54-16-21,.41-18.31,5.39-27.73,13.87-28.14,6.73-.4,13.33,11.58,13.87,23.7.27,10.77-.14,25-11.72,25.45Z" transform="translate(-74.43 0)"/><path class="a" d="M368.72,196.84c-12.12.4-18.71-10.23-18.31-23.7.41-17.9,5.79-25,15.22-25,12.52-.4,15.21,10.23,16,23.7.4,13.46-3.5,24.64-12.93,25Z" transform="translate(-74.43 0)"/><path class="a" d="M360.64,204.92c13.87,0,21,9.83,20.06,25.85-1.34,21.41-7.53,32.58-18.31,32.58-8.88,0-17-14.67-17.36-29,0-13.06.94-29.48,15.61-29.48Z" transform="translate(-74.43 0)"/><path class="a" d="M323.21,297.68c-12.52,0-19.25-8.88-18.31-20.06,1.35-14.67,7.14-20.06,17-20.06,13.33,0,15.21,8.89,15.62,20.06s-4.45,20.06-14.28,20.06Z" transform="translate(-74.43 0)"/><path class="a" d="M280.8,298.63c-12.11.4-18.71-8.08-18.31-18.31.95-13.87,6.2-19.26,15.62-19.26,12.93-.4,15.22,8.08,15.62,18.31.4,10.77-4,19.26-12.93,19.26Z" transform="translate(-74.43 0)"/><path class="a" d="M432.14,261.06c-1.75-17,4.44-26.39,13.86-25,12.53,1.35,17.91,9.42,19.26,22.75,1.75,18.31-4.85,21-14.27,21.81-9.56.14-17.51-6.59-18.85-19.52Z" transform="translate(-74.43 0)"/><path class="a" d="M408.84,247.73c-9.42.41-14.67-4.84-14.27-13.86.41-12.12,4.45-18.32,12.12-18.32,5.79,0,11.58,7.54,12.52,15.62,0,6.73-.54,16.16-10.37,16.56Z" transform="translate(-74.43 0)"/><path class="a" d="M364.68,310.2c-12.11.41-18.71-8.07-18.31-18.31.41-13.86,6.2-19.25,15.22-19.65,12.92-.41,15.21,8.08,16,18.31.94,10.77-3.5,19.25-12.93,19.65Z" transform="translate(-74.43 0)"/></svg>