<?xml version="1.0" encoding="UTF-8" standalone="no"?>
<!-- Generator: Adobe Illustrator 18.1.1, SVG Export Plug-In . SVG Version: 6.00 Build 0)  -->
<svg xmlns:dc="http://purl.org/dc/elements/1.1/" xmlns:cc="http://creativecommons.org/ns#" xmlns:rdf="http://www.w3.org/1999/02/22-rdf-syntax-ns#" xmlns:svg="http://www.w3.org/2000/svg" xmlns="http://www.w3.org/2000/svg" xmlns:xlink="http://www.w3.org/1999/xlink" xmlns:sodipodi="http://sodipodi.sourceforge.net/DTD/sodipodi-0.dtd" xmlns:inkscape="http://www.inkscape.org/namespaces/inkscape" version="1.1" id="Layer_1" x="0px" y="0px" viewBox="1 74.1 409.3463 464.2176" enable-background="new 1 74.1 609.3 628.6" xml:space="preserve" inkscape:version="0.48.5 r10040" width="100%" height="100%" sodipodi:docname="logo.svg"><metadata id="metadata195"><rdf:RDF><cc:Work rdf:about=""><dc:format>image/svg+xml</dc:format><dc:type rdf:resource="http://purl.org/dc/dcmitype/StillImage"/><dc:title/></cc:Work></rdf:RDF></metadata><defs id="defs193"/><sodipodi:namedview pagecolor="#ffffff" bordercolor="#666666" borderopacity="1" objecttolerance="10" gridtolerance="10" guidetolerance="10" inkscape:pageopacity="0" inkscape:pageshadow="2" inkscape:window-width="640" inkscape:window-height="480" id="namedview191" showgrid="false" inkscape:zoom="0.37543748" inkscape:cx="204.6334" inkscape:cy="149.9176" inkscape:window-x="0" inkscape:window-y="0" inkscape:window-maximized="0" inkscape:current-layer="Layer_1" fit-margin-top="0" fit-margin-left="0" fit-margin-right="0" fit-margin-bottom="0"/><g id="tree_1_" transform="translate(-100.01661,0)"><g id="trunk_copy__x2B__trunk_copy_2__x2B__leafs_xA0_Image_1_"/></g><g id="g25" transform="translate(-100.01661,0)"><defs id="defs27"><path id="SVGID_1_" d="m 332.9,492.1 c 0,24.2 52.4,20.2 45.4,28.5 -1,1.3 -3.6,4.3 -13.3,3.6 -7.6,-0.3 -26.9,-10.6 -33.5,-11.3 -15.6,-1.3 -36.5,20.6 -53,24.5 -13.3,2 -19.9,0.7 -19.2,-3.6 1,-6.3 31.8,-5.3 35.5,-26.9 -6.6,3.6 -30.8,9.9 -33.5,3.3 -5.6,-13.6 39.5,0.7 30.8,-28.8" inkscape:connector-curvature="0"/></defs><use xlink:href="#SVGID_1_" overflow="visible" id="use30" style="fill:#251d12;overflow:visible" x="0" y="0" width="609.29999" height="628.59998"/><clipPath id="SVGID_2_"><use xlink:href="#SVGID_1_" overflow="visible" id="use33" style="overflow:visible" x="0" y="0" width="609.29999" height="628.59998"/></clipPath></g><g id="g35" transform="translate(-100.01661,0)"><defs id="defs37"><path id="SVGID_3_" d="m 312.3,417.9 c 13.9,0 28.5,-7 27.8,15.6 -1,24.5 2,46.1 2.3,57 0,24.2 43.1,19.9 36.1,28.2 -1,1.3 -3.6,4.3 -13.3,3.6 -7.6,-0.3 -26.9,-9.6 -33.5,-10.3 -15.6,-1.3 -36.5,19.6 -53,23.9 -13.3,2 -19.9,0.7 -19.2,-3.6 1,-6.3 31.8,-5.3 35.5,-26.9 -6.6,3.6 -30.8,9.9 -33.5,3.3 -4.3,-10.6 16.9,-5.6 21.2,-15.9 3,-7.3 0.3,-29.2 0.3,-64.3 -0.5,-10 5.1,-10.6 29.3,-10.6 l 0,0 z" inkscape:connector-curvature="0"/></defs><use xlink:href="#SVGID_3_" overflow="visible" id="use40" style="fill:#312716;overflow:visible" x="0" y="0" width="609.29999" height="628.59998"/><clipPath id="SVGID_4_"><use xlink:href="#SVGID_3_" overflow="visible" id="use43" style="overflow:visible" x="0" y="0" width="609.29999" height="628.59998"/></clipPath></g><path d="m 72.083392,374.1 c 10.9,0 16.6,9.9 15.6,22.2 -1.3,16.6 -6.3,22.5 -14.9,22.5 -11.6,-0.3 -13.3,-9.9 -13.3,-22.5 -0.4,-12.2 3.9,-22.2 12.6,-22.2 l 0,0 z" id="path45" inkscape:connector-curvature="0" style="fill:#0db591"/><path d="m 109.48339,392 c 10.9,0 16.6,7.6 15.9,19.9 -1.3,16.6 -6.3,25.2 -14.9,24.9 -7,0 -13.299998,-11.3 -13.299998,-22.5 -0.3,-9.7 0.7,-22.3 12.299998,-22.3 l 0,0 z" id="path47" inkscape:connector-curvature="0" style="fill:#0db591"/><path d="m 169.18339,120.5 c 11.6,0 17.2,-10.6 15.6,-23.2 -2.3,-16.9 -8,-23.2 -16.9,-23.2 -12.3,0.3 -13.6,10.3 -13.3,23.2 0.3,12.9 5.6,23.2 14.6,23.2 l 0,0 z" id="path49" inkscape:connector-curvature="0" style="fill:#0db591"/><path d="m 100.18339,149.3 c -11.899998,0 -17.899998,-10.6 -16.899998,-23.5 1.3,-17.2 7,-23.5 15.9,-23.2 12.599998,0.3 14.299998,10.3 14.599998,23.2 0.3,12.9 -4.3,23.5 -13.6,23.5 l 0,0 z" id="path51" inkscape:connector-curvature="0" style="fill:#0db591"/><path d="m 18.383392,298.9 c -11.8999997,0 -18.59999972,-8.3 -17.1999997,-21.9 1.7,-17.9 7.6,-27.2 16.8999997,-27.2 7.6,0 14.3,12.3 14.6,24.2 -0.1,10.9 -1.4,24.9 -14.3,24.9 l 0,0 z" id="path53" inkscape:connector-curvature="0" style="fill:#0db591"/><path d="m 134.08339,125.8 c 10.3,0 15.3,-8.3 13.9,-18.6 -1.7,-13.6 -7,-18.6 -14.9,-18.6 -10.9,0.3 -11.9,8.6 -11.9,18.6 0.3,10.3 4.9,18.6 12.9,18.6 l 0,0 z" id="path55" inkscape:connector-curvature="0" style="fill:#0db591"/><path d="m 151.98339,456.3 c 10.3,0 15.3,-7.6 13.9,-20.2 -2,-16.6 -7.3,-25.2 -15.3,-24.9 -6.6,0 -11.9,11.3 -11.6,22.5 0.4,9.7 1.7,22.6 13,22.6 l 0,0 z" id="path57" inkscape:connector-curvature="0" style="fill:#0db591"/><path d="m 40.583392,358.9 c -8,-0.3 -12.6,4.6 -11.9,12.6 1,10.9 4.6,16.9 10.9,17.2 5.3,0 9.9,-7 9.9,-14.6 0.7,-6.3 0,-14.9 -8.9,-15.2 l 0,0 z" id="path59" inkscape:connector-curvature="0" style="fill:#0db591"/><path d="m 350.18339,148.3 c 10.6,0 16.2,9.6 15.9,20.9 -0.7,15.6 -5.3,21.2 -13.6,21.2 -11.3,-0.3 -12.9,-9.6 -13.6,-21.2 -1,-11.2 3,-20.9 11.3,-20.9 l 0,0 z" id="path61" inkscape:connector-curvature="0" style="fill:#0db591"/><path d="m 203.98339,76.1 c 10.3,0 15.9,7 15.3,18.2 -1,15.3 -6,23.2 -13.9,22.9 -6.6,0 -12.9,-10.3 -13.3,-20.6 0,-8.9 0.6,-20.5 11.9,-20.5 l 0,0 z" id="path63" inkscape:connector-curvature="0" style="fill:#0db591"/><path d="m 182.48339,219.3 c 11.9,0 17.2,-10.9 15.6,-23.9 -2.3,-17.6 -8,-23.9 -17.2,-23.9 -12.3,0.3 -13.6,10.6 -13.3,23.9 0.6,13.3 5.6,23.9 14.9,23.9 l 0,0 z" id="path65" inkscape:connector-curvature="0" style="fill:#0db591"/><path d="m 142.68339,176.5 c 10.6,0 16.2,7 15.3,18.2 -1,15.3 -6.3,22.9 -14.3,22.9 -6.6,0 -12.9,-10.3 -13.3,-20.6 0,-8.9 1,-20.5 12.3,-20.5 l 0,0 z" id="path67" inkscape:connector-curvature="0" style="fill:#0db591"/><path d="m 380.08339,227.3 c 9.9,0 14.6,-7.3 12.9,-18.9 -2.3,-15.6 -7.6,-23.5 -15.3,-23.5 -6.3,0 -11.3,10.6 -10.6,21.2 0.4,8.9 2.3,21.2 13,21.2 l 0,0 z" id="path69" inkscape:connector-curvature="0" style="fill:#0db591"/><path d="m 319.68339,160.3 c -11.3,-0.3 -16.9,-11.3 -15.9,-24.2 1.3,-17.2 6.6,-23.2 15.3,-22.9 11.6,0.7 13.3,10.9 13.6,23.9 0.3,13.2 -4.4,23.5 -13,23.2 l 0,0 z" id="path71" inkscape:connector-curvature="0" style="fill:#0db591"/><path d="m 362.08339,256.4 c -9,-0.3 -13.3,5 -12.3,13.6 1.3,11.9 6,17.9 12.9,18.2 5.6,0 10.3,-7.6 10.3,-15.6 -0.2,-6.6 -1.6,-15.8 -10.9,-16.2 l 0,0 z" id="path73" inkscape:connector-curvature="0" style="fill:#0db591"/><path d="m 247.78339,263.7 c -9,-0.3 -13.3,4.3 -12.6,11.9 1.3,10.3 5.6,15.9 12.3,15.9 5.6,0 10.6,-6.6 10.6,-13.6 0.3,-5.9 -0.7,-13.8 -10.3,-14.2 l 0,0 z" id="path75" inkscape:connector-curvature="0" style="fill:#0db591"/><path d="m 19.983392,350.9 c 9.9,0.3 15.3,-8.6 14.6,-19.6 -1,-14.9 -5.6,-20.6 -13.3,-20.9 -10.6,-0.3 -12.2999997,8.6 -12.5999997,19.6 -0.3,11.3 3.6999997,20.6 11.2999997,20.9 l 0,0 z" id="path77" inkscape:connector-curvature="0" style="fill:#0db591"/><path d="m 349.58339,294.2 c 11.9,0 18.9,8.3 18.2,21.9 -0.7,18.2 -6.3,27.8 -15.6,27.5 -7.6,0 -15.3,-12.3 -15.9,-24.9 -0.7,-10.6 0,-24.5 13.3,-24.5 l 0,0 z" id="path79" inkscape:connector-curvature="0" style="fill:#0db591"/><path d="m 393.28339,280 c 11.6,0 16.6,-9.9 14.9,-21.5 -2.7,-15.9 -8.6,-21.5 -17.2,-21.5 -12.3,0.3 -13.3,9.6 -12.3,21.5 0.4,11.9 5.7,21.5 14.6,21.5 l 0,0 z" id="path81" inkscape:connector-curvature="0" style="fill:#0db591"/><path d="m 273.28339,458 c 12.3,-0.7 17.6,-12.3 15.3,-26.2 -3.3,-18.6 -9.6,-25.2 -19.2,-24.5 -12.9,0.7 -13.6,11.9 -12.6,25.9 0.9,13.9 6.9,25.1 16.5,24.8 l 0,0 z" id="path83" inkscape:connector-curvature="0" style="fill:#0db591"/><path d="m 351.88339,404.6 c 12.3,-0.7 17.9,-9.3 15.3,-23.2 -3.3,-18.2 -10.3,-27.5 -19.6,-27.2 -7.6,0.3 -13.3,12.9 -12.3,25.5 0.7,11.3 3.3,25.6 16.6,24.9 l 0,0 z" id="path85" inkscape:connector-curvature="0" style="fill:#0db591"/><path d="m 380.68339,343.6 c 8.6,-0.3 13.6,4.6 13.3,12.6 -0.3,10.9 -4,16.9 -10.6,16.9 -5.6,0 -10.9,-7 -11.6,-14.6 -0.7,-6.3 -0.4,-14.5 8.9,-14.9 l 0,0 z" id="path87" inkscape:connector-curvature="0" style="fill:#0db591"/><path d="m 399.28339,331 c -10.6,0.3 -16.9,-8.6 -16.6,-19.6 0,-14.9 4.6,-20.6 12.9,-20.6 11.3,-0.3 13.6,8.6 14.6,19.6 1,11.3 -2.6,20.3 -10.9,20.6 l 0,0 z" id="path89" inkscape:connector-curvature="0" style="fill:#0db591"/><path d="m 318.68339,431.1 c -12.3,0.7 -18.9,-6.3 -18.6,-17.9 0.3,-15.3 5.6,-23.5 15.3,-23.9 7.6,-0.3 15.3,9.9 16.2,20.2 0.4,9.4 0,21.3 -12.9,21.6 l 0,0 z" id="path91" inkscape:connector-curvature="0" style="fill:#0db591"/><path d="m 316.68339,283.6 c 9,0 13.9,7.3 13.6,19.6 -0.3,16.2 -4.6,24.5 -11.3,24.2 -5.6,0 -11.3,-10.9 -11.6,-21.9 -0.9,-9.3 -0.3,-21.9 9.3,-21.9 l 0,0 z" id="path93" inkscape:connector-curvature="0" style="fill:#0db591"/><path d="m 277.88339,98.6 c 11.6,0 17.9,9.6 17.2,21.2 -1,15.6 -6.3,21.5 -15.3,21.2 -12.3,-0.3 -14.3,-9.6 -14.9,-21.2 -0.2,-11.9 4.1,-21.2 13,-21.2 l 0,0 z" id="path95" inkscape:connector-curvature="0" style="fill:#0db591"/><path d="m 77.383392,166.3 c -10.9,-1 -17.2,9.9 -16.9,23.9 0.3,18.6 5,25.9 13.6,26.5 11.6,0.7 13.9,-10.3 14.9,-24.2 0.6,-14 -3.3,-25.6 -11.6,-26.2 l 0,0 z" id="path97" inkscape:connector-curvature="0" style="fill:#0db591"/><path d="m 35.283392,156.3 c -10.9,0 -16.6,8.3 -15.6,21.5 1.7,17.9 7.3,27.2 15.9,27.2 7,0 13.3,-12.3 12.9,-24.5 0,-10.3 -1.3,-24.2 -13.2,-24.2 l 0,0 z" id="path99" inkscape:connector-curvature="0" style="fill:#0db591"/><path d="m 348.58339,210 c 10.6,0 16.2,9 15.6,20.2 -0.7,14.9 -5.3,20.2 -13.6,20.2 -11.3,-0.3 -12.9,-9 -13.6,-20.2 -0.4,-11.2 3.6,-20.2 11.6,-20.2 l 0,0 z" id="path101" inkscape:connector-curvature="0" style="fill:#0db591"/><path d="m 60.783392,121.8 c 11.6,0 17.9,6.6 16.6,17.6 -1.3,14.6 -7.3,22.2 -16.2,22.2 -7.6,0 -13.9,-9.9 -14.3,-19.9 0.3,-8.6 1.3,-19.9 13.9,-19.9 l 0,0 z" id="path103" inkscape:connector-curvature="0" style="fill:#0db591"/><path d="m 238.18339,402.6 c 10.9,0 15.9,-10.3 14.3,-22.9 -2.3,-16.9 -7.6,-22.9 -15.9,-22.9 -11.3,0.3 -12.6,10.3 -11.9,22.9 0.2,12.7 5.2,22.9 13.5,22.9 l 0,0 z" id="path105" inkscape:connector-curvature="0" style="fill:#0db591"/><path d="m 165.88339,402.6 c 10.9,0 16.2,-8 14.6,-20.2 -2,-16.9 -7.6,-25.5 -15.9,-25.2 -7,0 -12.6,11.3 -12.3,22.9 0.3,9.6 2,22.5 13.6,22.5 l 0,0 z" id="path107" inkscape:connector-curvature="0" style="fill:#0db591"/><path d="m 202.98339,409.9 c -9.6,0 -14.6,-9.3 -13.9,-20.6 1,-14.9 5.3,-20.6 12.6,-20.6 10.3,0.3 11.6,9.3 11.9,20.6 0.7,11.3 -3,20.6 -10.6,20.6 l 0,0 z" id="path109" inkscape:connector-curvature="0" style="fill:#0db591"/><path d="m 279.58339,393 c -11.9,0 -18.6,-9 -17.9,-22.9 1,-18.9 6.6,-28.5 15.9,-28.5 7.6,0 14.9,12.9 15.6,25.5 0,11 -0.7,25.9 -13.6,25.9 l 0,0 z" id="path111" inkscape:connector-curvature="0" style="fill:#0db591"/><path d="m 89.583392,375.4 c 11.299998,0 16.599998,-11.6 15.299998,-25.5 -2,-18.6 -7.299998,-25.5 -15.899998,-25.2 -11.6,0.3 -12.9,11.3 -12.9,25.2 0.3,13.9 4.9,25.5 13.5,25.5 l 0,0 z" id="path113" inkscape:connector-curvature="0" style="fill:#0db591"/><path d="m 48.183392,257.1 c 10.9,0 16.6,-7.6 15.3,-19.9 -1.7,-16.6 -7.3,-24.9 -15.6,-24.9 -7,0 -12.9,11.3 -12.6,22.2 -0.4,9.7 1,22.6 12.9,22.6 l 0,0 z" id="path115" inkscape:connector-curvature="0" style="fill:#0db591"/><path d="m 251.38339,145 c 8.3,0 12.9,5 12.3,12.9 -0.7,10.6 -4.6,16.2 -11.3,15.9 -5.3,0 -10.3,-7.3 -10.6,-14.6 0,-6.2 0.7,-14.2 9.6,-14.2 l 0,0 z" id="path117" inkscape:connector-curvature="0" style="fill:#0db591"/><path d="m 288.58339,202.1 c -10.6,0 -16.2,-10.6 -15.6,-23.2 0.7,-16.9 5.6,-23.2 13.6,-22.9 10.9,0.3 12.9,10.3 13.6,22.9 0.3,12.9 -3.4,23.2 -11.6,23.2 l 0,0 z" id="path119" inkscape:connector-curvature="0" style="fill:#0db591"/><path d="m 143.98339,168.9 c -11.6,0 -17.9,-6.6 -16.9,-17.2 1.3,-14.3 7,-21.5 15.9,-21.5 7.3,0 14.3,9.6 14.3,19.2 0.6,8.6 -0.7,19.5 -13.3,19.5 l 0,0 z" id="path121" inkscape:connector-curvature="0" style="fill:#0db591"/><path d="m 127.78339,386.7 c 10.9,0.7 16.9,-8 15.9,-22.2 -1.3,-18.9 -6.6,-28.8 -15.3,-28.8 -7,-0.3 -13.3,11.9 -13.3,24.9 -0.3,11.2 1.1,25.8 12.7,26.1 l 0,0 z" id="path123" inkscape:connector-curvature="0" style="fill:#0db591"/><path d="m 243.08339,131.4 c -10.9,-0.3 -16.9,-9 -15.6,-21.9 1.7,-17.6 7,-26.2 15.6,-25.9 7,0.3 13.3,12.6 13.3,24.2 0,10.7 -1.3,24.3 -13.3,23.6 l 0,0 z" id="path125" inkscape:connector-curvature="0" style="fill:#0db591"/><path d="m 250.78339,297.5 c -11.9,0 -17.6,11.3 -15.9,24.5 2.3,18.2 8.3,24.9 17.6,24.9 12.6,-0.3 13.9,-11.3 13.3,-24.9 -0.5,-13.5 -6.1,-24.5 -15,-24.5 l 0,0 z" id="path127" inkscape:connector-curvature="0" style="fill:#0db591"/><path d="m 320.38339,227.9 c 11.9,0 18.6,10.9 17.9,24.2 -0.7,17.9 -6.3,24.5 -15.6,24.2 -12.6,-0.3 -14.9,-10.9 -15.6,-24.2 -0.3,-13.2 4.3,-24.2 13.3,-24.2 l 0,0 z" id="path129" inkscape:connector-curvature="0" style="fill:#0db591"/><path d="m 286.18339,289.6 c -10.6,0 -15.6,9 -13.9,20.2 2,14.9 7.6,20.2 15.6,20.2 11.3,-0.3 12.3,-9 11.6,-20.2 0,-11.3 -5,-20.2 -13.3,-20.2 l 0,0 z" id="path131" inkscape:connector-curvature="0" style="fill:#0db591"/><path d="m 214.98339,349.9 c -10.9,0 -16.6,-6.3 -15.9,-16.6 1,-13.6 6.3,-20.9 14.6,-20.6 7,0 13.3,9.3 13.6,18.6 0.2,8 -0.7,18.6 -12.3,18.6 l 0,0 z" id="path133" inkscape:connector-curvature="0" style="fill:#0db591"/><path d="m 84.683392,225.9 c 9.9,0.3 14.9,10.3 13.6,22.2 -1.7,15.9 -6.6,21.5 -14.3,20.9 -10.6,-0.7 -11.6,-10.3 -11.6,-22.2 0.3,-11.9 4.6,-21.2 12.3,-20.9 l 0,0 z" id="path135" inkscape:connector-curvature="0" style="fill:#0db591"/><path d="m 117.18339,325.7 c -9.3,0 -14.3,-6.6 -13.3,-14.9 1,-10.9 5.6,-14.9 12.6,-14.9 9.9,0 11.3,6.6 11.6,14.9 0.3,8.3 -3.7,14.9 -10.9,14.9 l 0,0 z" id="path137" inkscape:connector-curvature="0" style="fill:#0db591"/><path d="m 178.78339,299.2 c 11.3,0.7 17.2,9.3 15.9,23.2 -1.7,18.6 -7.3,28.2 -16.2,27.5 -7.3,-0.3 -13.6,-13.3 -13.3,-26.2 0,-10.6 1.3,-24.8 13.6,-24.5 l 0,0 z" id="path139" inkscape:connector-curvature="0" style="fill:#0db591"/><path d="m 52.483392,267 c -8.6,-0.3 -12.9,4.6 -12.3,12.6 1,10.9 5,16.9 11.6,17.2 5.6,0 10.3,-7 10.6,-14.6 0,-6.2 -0.9,-14.8 -9.9,-15.2 l 0,0 z" id="path141" inkscape:connector-curvature="0" style="fill:#0db591"/><path d="m 12.683392,243.5 c 10.6,0.3 15.9,-8.6 15.3,-19.6 -1,-14.9 -6,-20.6 -13.9,-20.6 -10.8999997,-0.3 -12.5999997,8.6 -12.8999997,19.6 -0.40000002,11 3.6,20.3 11.4999997,20.6 l 0,0 z" id="path143" inkscape:connector-curvature="0" style="fill:#0db591"/><path d="m 53.483392,347.6 c 10.9,0.7 16.9,-6.3 15.9,-17.9 -1.3,-15.3 -6.6,-23.5 -14.9,-23.9 -7,-0.3 -13.3,9.6 -13.6,20.2 0,9.3 1,21.3 12.6,21.6 l 0,0 z" id="path145" inkscape:connector-curvature="0" style="fill:#0db591"/><path d="m 311.38339,377.1 c 10.9,0 15.9,-10.3 13.9,-22.9 -2.3,-16.6 -8,-22.9 -16.2,-22.5 -11.3,0.3 -12.3,9.9 -11.9,22.5 1,12.6 5.9,22.9 14.2,22.9 l 0,0 z" id="path147" inkscape:connector-curvature="0" style="fill:#0db591"/><path d="m 321.38339,217 c 10.6,0 15.6,-7.3 13.9,-19.2 -2.3,-15.9 -8,-24.2 -16.2,-23.9 -6.6,0 -11.9,10.9 -11.6,21.5 0.6,9 2.3,21.6 13.9,21.6 l 0,0 z" id="path149" inkscape:connector-curvature="0" style="fill:#0db591"/><path d="m 107.18339,154.6 c 9.9,0 15.3,7.3 14.3,19.2 -1,15.9 -6,24.2 -13.6,23.9 -6.3,0 -11.899998,-10.9 -12.299998,-21.5 0,-9.3 0.7,-21.6 11.599998,-21.6 l 0,0 z" id="path151" inkscape:connector-curvature="0" style="fill:#0db591"/><path d="m 217.88339,129.1 c -10.9,0.4 -15.9,11.6 -13.9,24.9 3,17.9 8.6,24.2 17.2,23.5 11.6,-0.7 12.6,-11.6 11.6,-24.9 -0.9,-13.2 -6.2,-23.8 -14.9,-23.5 l 0,0 z" id="path153" inkscape:connector-curvature="0" style="fill:#0db591"/><path d="m 86.983392,314.4 c -8,0.3 -12.6,-5.6 -11.9,-15.9 0.7,-13.6 4.3,-20.9 10.3,-21.2 5,-0.3 9.9,8.6 10.3,17.9 0.6,8 -0.1,18.9 -8.7,19.2 l 0,0 z" id="path155" inkscape:connector-curvature="0" style="fill:#0db591"/><path d="m 178.48339,126.1 c 11.3,0 17.2,8.6 16.2,18.9 -1.3,13.9 -6.6,19.2 -15.3,18.9 -11.9,-0.3 -13.6,-8.6 -13.9,-18.9 -0.3,-10.2 4.4,-18.9 13,-18.9 l 0,0 z" id="path157" inkscape:connector-curvature="0" style="fill:#0db591"/><path d="m 146.98339,339 c -9,0.3 -13.9,-8 -13.6,-18.2 0.3,-13.9 4.6,-18.9 11.6,-19.2 9.6,-0.3 11.3,8 11.9,18.2 0.4,10.2 -2.9,18.8 -9.9,19.2 l 0,0 z" id="path159" inkscape:connector-curvature="0" style="fill:#0db591"/><path d="m 251.38339,227.6 c 10.6,0 15.6,-9.9 13.9,-21.9 -2.3,-15.9 -7.6,-21.9 -15.6,-21.5 -11.3,0.3 -12.3,9.6 -11.6,21.5 0.4,12.3 5,21.9 13.3,21.9 l 0,0 z" id="path161" inkscape:connector-curvature="0" style="fill:#0db591"/><path d="m 150.28339,259.7 c 10.6,0 15.9,-6.3 14.6,-16.2 -2,-13.3 -7.3,-20.2 -15.6,-20.2 -6.6,0 -12.3,9 -12.3,18.2 0.4,8 2,18.2 13.3,18.2 l 0,0 z" id="path163" inkscape:connector-curvature="0" style="fill:#0db591"/><path d="m 184.08339,259.7 c -9.3,0 -14.3,-7.6 -13.6,-16.9 1,-12.3 5.3,-16.9 12.6,-16.6 9.9,0 11.3,7.6 11.6,16.6 0.7,9.6 -3.3,16.9 -10.6,16.9 l 0,0 z" id="path165" inkscape:connector-curvature="0" style="fill:#0db591"/><path d="m 115.18339,288.3 c 10.9,0.3 16.6,-6 15.9,-16.2 -1.3,-13.9 -6.6,-21.2 -14.9,-21.2 -7,0 -13.3,9 -13.3,18.2 -0.3,8.2 0.7,18.8 12.3,19.2 l 0,0 z" id="path167" inkscape:connector-curvature="0" style="fill:#0db591"/><path d="m 286.88339,245.5 c -9.3,0 -14.3,-8.3 -13.6,-18.2 0.7,-13.6 5,-18.2 12.3,-18.2 9.6,0.3 11.3,8.3 11.9,18.2 0,9.9 -3.3,18.2 -10.6,18.2 l 0,0 z" id="path169" inkscape:connector-curvature="0" style="fill:#0db591"/><path d="m 118.48339,240.5 c -8,0.3 -12.3,-5.6 -11.9,-15.6 0.3,-13.6 4,-20.6 10.3,-20.9 5,-0.3 9.9,8.6 10.3,17.6 0.2,8 -0.1,18.6 -8.7,18.9 l 0,0 z" id="path171" inkscape:connector-curvature="0" style="fill:#0db591"/><path d="m 219.58339,220.3 c -9,0.3 -13.9,-7.6 -13.6,-17.6 0.3,-13.3 4.3,-18.6 11.3,-18.6 9.3,-0.3 11.3,7.6 11.9,17.6 0.3,10 -2.6,18.3 -9.6,18.6 l 0,0 z" id="path173" inkscape:connector-curvature="0" style="fill:#0db591"/><path d="m 213.58339,226.3 c 10.3,0 15.6,7.3 14.9,19.2 -1,15.9 -5.6,24.2 -13.6,24.2 -6.6,0 -12.6,-10.9 -12.9,-21.5 0,-9.7 0.7,-21.9 11.6,-21.9 l 0,0 z" id="path175" inkscape:connector-curvature="0" style="fill:#0db591"/><path d="m 185.78339,295.2 c -9.3,0 -14.3,-6.6 -13.6,-14.9 1,-10.9 5.3,-14.9 12.6,-14.9 9.9,0 11.3,6.6 11.6,14.9 0.3,8.3 -3.3,14.9 -10.6,14.9 l 0,0 z" id="path177" inkscape:connector-curvature="0" style="fill:#0db591"/><path d="m 154.28339,295.9 c -9,0.3 -13.9,-6 -13.6,-13.6 0.7,-10.3 4.6,-14.3 11.6,-14.3 9.6,-0.3 11.3,6 11.6,13.6 0.3,8 -3,14.3 -9.6,14.3 l 0,0 z" id="path179" inkscape:connector-curvature="0" style="fill:#0db591"/><path d="m 266.68339,268 c -1.3,-12.6 3.3,-19.6 10.3,-18.6 9.3,1 13.3,7 14.3,16.9 1.3,13.6 -3.6,15.6 -10.6,16.2 -7.1,0.1 -13,-4.9 -14,-14.5 l 0,0 z" id="path181" inkscape:connector-curvature="0" style="fill:#0db591"/><path d="m 249.38339,258.1 c -7,0.3 -10.9,-3.6 -10.6,-10.3 0.3,-9 3.3,-13.6 9,-13.6 4.3,0 8.6,5.6 9.3,11.6 0,5 -0.4,12 -7.7,12.3 l 0,0 z" id="path183" inkscape:connector-curvature="0" style="fill:#0db591"/><path d="m 216.58339,304.5 c -9,0.3 -13.9,-6 -13.6,-13.6 0.3,-10.3 4.6,-14.3 11.3,-14.6 9.6,-0.3 11.3,6 11.9,13.6 0.7,8 -2.6,14.3 -9.6,14.6 l 0,0 z" id="path185" inkscape:connector-curvature="0" style="fill:#0db591"/></svg>